<mxfile host="app.diagrams.net" modified="2022-03-10T16:50:43.577Z" agent="5.0 (Windows NT 10.0; Win64; x64) AppleWebKit/537.36 (KHTML, like Gecko) Chrome/99.0.4844.51 Safari/537.36" etag="jDw2qaKTxHdrWorsSvEQ" version="17.1.0" type="github">
  <diagram id="tUxr16UzHkLMd2SmbaSk" name="Page-1">
    <mxGraphModel dx="1422" dy="790" grid="1" gridSize="10" guides="1" tooltips="1" connect="1" arrows="1" fold="1" page="1" pageScale="1" pageWidth="827" pageHeight="1169" math="0" shadow="0">
      <root>
        <mxCell id="0" />
        <mxCell id="1" parent="0" />
        <mxCell id="Mc4nvprI8IaPf4unHZPA-1" value="&lt;font style=&quot;font-size: 12px&quot;&gt;&lt;b&gt;&lt;u&gt;Cartera Madre&lt;br&gt;&lt;/u&gt;&lt;/b&gt;&lt;/font&gt;&lt;div style=&quot;text-align: left&quot;&gt;&lt;span&gt;&lt;font size=&quot;3&quot;&gt;- Balance de MATIC: X puntos&lt;/font&gt;&lt;/span&gt;&lt;/div&gt;&lt;div style=&quot;text-align: left&quot;&gt;&lt;font size=&quot;3&quot;&gt;&lt;span&gt;- Balance de puntos:&amp;nbsp;&lt;/span&gt;&lt;font&gt;∞ puntos&lt;/font&gt;&lt;/font&gt;&lt;/div&gt;&lt;font size=&quot;3&quot;&gt;&lt;div style=&quot;text-align: left&quot;&gt;- Permisos: Todos&lt;/div&gt;&lt;/font&gt;" style="rounded=0;whiteSpace=wrap;html=1;" vertex="1" parent="1">
          <mxGeometry y="590" width="240" height="100" as="geometry" />
        </mxCell>
        <mxCell id="Mc4nvprI8IaPf4unHZPA-2" value="&lt;font style=&quot;font-size: 12px&quot;&gt;Contrato&lt;br&gt;&lt;div style=&quot;text-align: left&quot;&gt;&lt;span&gt;- Metodos de lectura:&lt;/span&gt;&lt;/div&gt;&lt;div style=&quot;text-align: left&quot;&gt;&lt;span&gt;&lt;span style=&quot;white-space: pre&quot;&gt;	&lt;/span&gt;VerPuntos(Cartera)&lt;/span&gt;&lt;/div&gt;&lt;div style=&quot;text-align: left&quot;&gt;&lt;span&gt;- Métodos de escritura:&lt;/span&gt;&lt;/div&gt;&lt;div style=&quot;text-align: left&quot;&gt;&lt;span&gt;&lt;span style=&quot;white-space: pre&quot;&gt;	&lt;/span&gt;GastarPuntos(CarteraCliente, CarteraPuntos, Puntos)&lt;br&gt;&lt;/span&gt;&lt;/div&gt;&lt;div style=&quot;text-align: left&quot;&gt;&lt;span&gt;&lt;span style=&quot;white-space: pre&quot;&gt;	&lt;/span&gt;GanarPuntos(CarterCliente, Puntos)&lt;/span&gt;&lt;/div&gt;&lt;/font&gt;" style="shape=process;whiteSpace=wrap;html=1;backgroundOutline=1;fontSize=14;" vertex="1" parent="1">
          <mxGeometry x="280" y="590" width="430" height="100" as="geometry" />
        </mxCell>
        <mxCell id="Mc4nvprI8IaPf4unHZPA-5" value="Carteras de clientes&lt;br&gt;&lt;div style=&quot;text-align: left&quot;&gt;&lt;span&gt;- Balance: X puntos&lt;/span&gt;&lt;/div&gt;" style="shape=hexagon;perimeter=hexagonPerimeter2;whiteSpace=wrap;html=1;fixedSize=1;fontSize=12;" vertex="1" parent="1">
          <mxGeometry x="200" y="210" width="230" height="100" as="geometry" />
        </mxCell>
        <mxCell id="Mc4nvprI8IaPf4unHZPA-6" value="" style="endArrow=none;html=1;rounded=0;fontSize=12;" edge="1" parent="1">
          <mxGeometry width="50" height="50" relative="1" as="geometry">
            <mxPoint x="80" y="400" as="sourcePoint" />
            <mxPoint x="320" y="310" as="targetPoint" />
          </mxGeometry>
        </mxCell>
        <mxCell id="Mc4nvprI8IaPf4unHZPA-7" value="Cliente 1" style="rounded=1;whiteSpace=wrap;html=1;fontSize=12;" vertex="1" parent="1">
          <mxGeometry x="10" y="400" width="140" height="60" as="geometry" />
        </mxCell>
        <mxCell id="Mc4nvprI8IaPf4unHZPA-8" value="Cliente 2" style="rounded=1;whiteSpace=wrap;html=1;fontSize=12;" vertex="1" parent="1">
          <mxGeometry x="180" y="400" width="120" height="60" as="geometry" />
        </mxCell>
        <mxCell id="Mc4nvprI8IaPf4unHZPA-9" value="" style="endArrow=none;html=1;rounded=0;fontSize=12;exitX=0.5;exitY=0;exitDx=0;exitDy=0;" edge="1" parent="1" source="Mc4nvprI8IaPf4unHZPA-8">
          <mxGeometry width="50" height="50" relative="1" as="geometry">
            <mxPoint x="270" y="360" as="sourcePoint" />
            <mxPoint x="320" y="310" as="targetPoint" />
          </mxGeometry>
        </mxCell>
        <mxCell id="Mc4nvprI8IaPf4unHZPA-10" value="" style="endArrow=none;html=1;rounded=0;fontSize=12;exitX=0.5;exitY=1;exitDx=0;exitDy=0;entryX=0.5;entryY=0;entryDx=0;entryDy=0;" edge="1" parent="1" source="Mc4nvprI8IaPf4unHZPA-5" target="Mc4nvprI8IaPf4unHZPA-16">
          <mxGeometry width="50" height="50" relative="1" as="geometry">
            <mxPoint x="414" y="360" as="sourcePoint" />
            <mxPoint x="370.7142857142858" y="400" as="targetPoint" />
          </mxGeometry>
        </mxCell>
        <mxCell id="Mc4nvprI8IaPf4unHZPA-15" value="&lt;font style=&quot;font-size: 24px&quot;&gt;...&lt;/font&gt;" style="text;html=1;strokeColor=none;fillColor=none;align=center;verticalAlign=middle;whiteSpace=wrap;rounded=0;fontSize=12;" vertex="1" parent="1">
          <mxGeometry x="340" y="400" width="60" height="30" as="geometry" />
        </mxCell>
        <mxCell id="Mc4nvprI8IaPf4unHZPA-16" value="&lt;font style=&quot;font-size: 12px&quot;&gt;Cliente n&lt;/font&gt;" style="rounded=1;whiteSpace=wrap;html=1;fontSize=24;" vertex="1" parent="1">
          <mxGeometry x="414" y="400" width="120" height="60" as="geometry" />
        </mxCell>
        <mxCell id="Mc4nvprI8IaPf4unHZPA-18" value="Carteras de supermercados&lt;br&gt;&lt;div style=&quot;text-align: left&quot;&gt;&lt;span&gt;- Balance: X puntos donados&lt;/span&gt;&lt;/div&gt;" style="shape=hexagon;perimeter=hexagonPerimeter2;whiteSpace=wrap;html=1;fixedSize=1;fontSize=12;" vertex="1" parent="1">
          <mxGeometry x="750" y="210" width="230" height="100" as="geometry" />
        </mxCell>
        <mxCell id="Mc4nvprI8IaPf4unHZPA-19" value="" style="endArrow=none;html=1;rounded=0;fontSize=12;" edge="1" parent="1">
          <mxGeometry width="50" height="50" relative="1" as="geometry">
            <mxPoint x="630" y="400" as="sourcePoint" />
            <mxPoint x="870" y="310" as="targetPoint" />
          </mxGeometry>
        </mxCell>
        <mxCell id="Mc4nvprI8IaPf4unHZPA-20" value="Supermercado 1" style="rounded=1;whiteSpace=wrap;html=1;fontSize=12;" vertex="1" parent="1">
          <mxGeometry x="560" y="400" width="140" height="60" as="geometry" />
        </mxCell>
        <mxCell id="Mc4nvprI8IaPf4unHZPA-21" value="Supermercado 2" style="rounded=1;whiteSpace=wrap;html=1;fontSize=12;" vertex="1" parent="1">
          <mxGeometry x="730" y="400" width="120" height="60" as="geometry" />
        </mxCell>
        <mxCell id="Mc4nvprI8IaPf4unHZPA-22" value="" style="endArrow=none;html=1;rounded=0;fontSize=12;exitX=0.5;exitY=0;exitDx=0;exitDy=0;" edge="1" parent="1" source="Mc4nvprI8IaPf4unHZPA-21">
          <mxGeometry width="50" height="50" relative="1" as="geometry">
            <mxPoint x="820" y="360" as="sourcePoint" />
            <mxPoint x="870" y="310" as="targetPoint" />
          </mxGeometry>
        </mxCell>
        <mxCell id="Mc4nvprI8IaPf4unHZPA-23" value="" style="endArrow=none;html=1;rounded=0;fontSize=12;exitX=0.5;exitY=1;exitDx=0;exitDy=0;entryX=0.5;entryY=0;entryDx=0;entryDy=0;" edge="1" parent="1" source="Mc4nvprI8IaPf4unHZPA-18" target="Mc4nvprI8IaPf4unHZPA-25">
          <mxGeometry width="50" height="50" relative="1" as="geometry">
            <mxPoint x="964" y="360" as="sourcePoint" />
            <mxPoint x="920.7142857142858" y="400" as="targetPoint" />
          </mxGeometry>
        </mxCell>
        <mxCell id="Mc4nvprI8IaPf4unHZPA-24" value="&lt;font style=&quot;font-size: 24px&quot;&gt;...&lt;/font&gt;" style="text;html=1;strokeColor=none;fillColor=none;align=center;verticalAlign=middle;whiteSpace=wrap;rounded=0;fontSize=12;" vertex="1" parent="1">
          <mxGeometry x="890" y="400" width="60" height="30" as="geometry" />
        </mxCell>
        <mxCell id="Mc4nvprI8IaPf4unHZPA-25" value="&lt;font style=&quot;font-size: 12px&quot;&gt;Supermercado n&lt;/font&gt;" style="rounded=1;whiteSpace=wrap;html=1;fontSize=24;" vertex="1" parent="1">
          <mxGeometry x="964" y="400" width="120" height="60" as="geometry" />
        </mxCell>
      </root>
    </mxGraphModel>
  </diagram>
</mxfile>
